<?xml version="1.0" standalone="no"?>
<!DOCTYPE svg PUBLIC "-//W3C//DTD SVG 20010904//EN"
 "http://www.w3.org/TR/2001/REC-SVG-20010904/DTD/svg10.dtd">
<svg version="1.0" xmlns="http://www.w3.org/2000/svg"
 width="1200.000000pt" height="1200.000000pt" viewBox="0 0 1200.000000 1200.000000"
 preserveAspectRatio="xMidYMid meet">

<defs>
  <linearGradient id="logoGradient" x1="0%" y1="0%" x2="100%" y2="100%">
    <stop offset="0%" style="stop-color:#E76D89;stop-opacity:1" />
    <stop offset="100%" style="stop-color:#F4C430;stop-opacity:1" />
  </linearGradient>
</defs>
<g transform="translate(0.000000,1200.000000) scale(0.100000,-0.100000)"
fill="url(#logoGradient)" stroke="url(#logoGradient)" stroke-width="80">
<path d="M4294 7691 c-2 -2 -4 -85 -4 -183 l0 -178 185 0 185 0 0 166 0 166
298 -4 c353 -4 380 -9 472 -95 104 -96 150 -210 157 -393 5 -107 2 -139 -16
-209 -33 -132 -83 -224 -171 -311 -132 -132 -235 -169 -499 -177 l-165 -6 57
-21 c160 -60 209 -134 358 -541 193 -526 490 -843 884 -944 170 -44 298 -51
506 -26 240 28 476 96 660 191 117 61 137 78 57 49 -179 -65 -407 -83 -583
-46 -228 47 -458 186 -599 362 -148 186 -216 362 -216 564 0 180 54 310 180
436 88 88 209 155 296 165 47 6 54 4 97 -29 80 -61 221 -101 277 -78 l25 10
-27 0 c-78 2 -200 95 -239 183 -18 42 -23 70 -23 139 0 77 3 93 32 152 39 78
92 128 180 168 104 49 179 61 332 57 120 -4 146 -8 234 -38 286 -97 458 -322
499 -655 2 -16 5 176 6 427 l1 457 -33 -19 c-63 -37 -127 -42 -327 -24 -388
35 -678 -10 -944 -145 -402 -205 -676 -551 -752 -950 -24 -123 -22 -321 4
-437 88 -396 361 -687 752 -800 108 -31 246 -54 332 -54 115 0 83 -17 -46 -24
-345 -19 -616 81 -834 308 -121 126 -208 268 -267 438 -15 43 -24 60 -22 41 3
-25 -1 -34 -15 -39 -10 -3 -16 -9 -13 -14 4 -7 -16 -17 -68 -34 -20 -6 -83 45
-93 77 -4 12 -9 24 -13 27 -7 6 -29 63 -42 110 -6 19 -12 90 -14 156 -3 107
-1 131 20 195 15 47 29 73 37 71 7 -1 -12 20 -42 48 -52 47 -54 50 -28 50 61
0 178 23 171 33 -4 6 0 8 11 4 10 -4 38 -2 63 5 41 10 47 16 65 57 50 120 122
254 180 335 75 106 216 252 310 320 l67 49 -32 56 c-87 157 -194 262 -332 327
-146 67 -144 67 -635 71 -245 2 -546 4 -668 6 -123 1 -226 0 -228 -2z"/>
<path d="M3780 7660 c0 -29 2 -30 43 -30 73 -1 137 -30 174 -78 l33 -44 1
-401 c1 -346 12 -749 17 -634 2 43 7 45 38 16 18 -17 21 -26 14 -39 -8 -15 -6
-17 8 -14 9 3 25 -1 36 -9 16 -11 17 -17 7 -38 -10 -20 -10 -21 1 -8 7 8 22
19 32 22 17 7 16 10 -14 25 -19 9 -36 23 -38 30 -3 11 0 12 16 3 11 -6 29 -11
39 -11 15 1 14 3 -5 13 -12 7 -19 17 -15 21 4 5 -4 6 -19 2 -15 -3 -30 -2 -33
4 -4 6 1 7 12 3 17 -6 17 -5 0 14 -22 25 -14 32 26 26 41 -6 48 -13 13 -13
-16 0 -25 -4 -21 -10 3 -5 18 -10 31 -10 23 0 25 4 23 33 -2 18 -1 37 3 42 3
6 6 259 7 563 l3 552 -216 0 -216 0 0 -30z"/>
<path d="M4290 7260 l0 -50 185 0 185 0 0 50 0 50 -185 0 -185 0 0 -50z"/>
<path d="M7978 7220 c23 -46 35 -83 35 -111 0 -40 0 -41 13 -18 16 30 18 83 3
112 -13 25 -69 87 -79 87 -4 0 9 -31 28 -70z"/>
<path d="M4292 7143 c2 -31 7 -48 16 -47 6 1 89 2 182 3 l170 1 0 45 0 45
-186 0 -185 0 3 -47z"/>
<path d="M4290 7030 l0 -50 185 0 185 0 0 50 0 50 -185 0 -185 0 0 -50z"/>
<path d="M7947 7034 c3 -17 -2 -57 -11 -91 -22 -82 -20 -101 10 -168 19 -41
25 -67 21 -93 l-5 -37 15 35 c16 37 11 76 -18 147 -11 26 -11 42 -1 78 16 60
15 117 -1 140 -13 16 -14 15 -10 -11z"/>
<path d="M4290 6915 l0 -45 185 0 185 0 0 45 0 45 -185 0 -185 0 0 -45z"/>
<path d="M4292 6803 l3 -48 183 -3 182 -2 0 50 0 50 -186 0 -185 0 3 -47z"/>
<path d="M4293 6724 c-2 -7 -3 -27 -1 -46 l3 -33 183 -3 183 -2 -3 47 -3 48
-179 1 c-131 0 -179 -3 -183 -12z"/>
<path d="M4297 6623 c-4 -3 -7 -26 -7 -50 l0 -43 185 0 185 0 0 50 0 50 -178
0 c-98 0 -182 -3 -185 -7z"/>
<path d="M4290 6465 l0 -45 185 0 185 0 0 45 0 45 -185 0 -185 0 0 -45z"/>
<path d="M4180 6480 c0 -5 5 -10 10 -10 6 0 10 5 10 10 0 6 -4 10 -10 10 -5 0
-10 -4 -10 -10z"/>
<path d="M4040 6416 c0 -9 30 -14 35 -6 4 6 -3 10 -14 10 -12 0 -21 -2 -21 -4z"/>
<path d="M4290 6355 l0 -45 185 0 185 0 0 45 0 45 -185 0 -185 0 0 -45z"/>
<path d="M4110 6370 c0 -5 5 -10 11 -10 5 0 7 5 4 10 -3 6 -8 10 -11 10 -2 0
-4 -4 -4 -10z"/>
<path d="M4290 6245 l0 -45 185 0 185 0 0 45 0 45 -185 0 -185 0 0 -45z"/>
<path d="M4290 6135 l0 -45 185 0 185 0 0 45 0 45 -185 0 -185 0 0 -45z"/>
<path d="M4290 6025 l0 -45 185 0 185 0 0 45 0 45 -185 0 -185 0 0 -45z"/>
<path d="M4290 5915 l0 -45 185 0 185 0 0 45 0 45 -185 0 -185 0 0 -45z"/>
<path d="M4290 5805 l0 -45 185 0 185 0 0 45 0 45 -185 0 -185 0 0 -45z"/>
<path d="M4292 5693 c2 -27 6 -47 11 -45 4 1 86 2 182 2 l175 0 0 45 0 45
-186 0 -185 0 3 -47z"/>
<path d="M7817 5623 c-17 -171 -112 -322 -268 -423 -111 -71 -247 -127 -559
-230 l-175 -57 90 -8 c407 -35 764 116 882 372 46 99 65 265 44 378 -7 38 -7
37 -14 -32z"/>
<path d="M4297 5623 c-4 -3 -7 -26 -7 -50 l0 -43 185 0 185 0 0 50 0 50 -178
0 c-98 0 -182 -3 -185 -7z"/>
<path d="M4290 5465 l0 -45 185 0 185 0 0 45 0 45 -185 0 -185 0 0 -45z"/>
<path d="M4290 5350 l0 -50 185 0 185 0 0 50 0 50 -185 0 -185 0 0 -50z"/>
<path d="M4290 5230 l0 -50 185 0 185 0 0 50 0 50 -185 0 -185 0 0 -50z"/>
<path d="M4290 5110 l0 -50 185 0 185 0 0 50 0 50 -185 0 -185 0 0 -50z"/>
<path d="M4290 4990 l0 -50 185 0 185 0 0 50 0 50 -185 0 -185 0 0 -50z"/>
<path d="M3278 4485 c-51 -17 -107 -65 -135 -118 -27 -50 -24 -161 6 -214 44
-77 121 -114 237 -114 89 0 139 19 146 55 3 14 4 26 2 26 -2 0 -24 -11 -50
-25 -60 -32 -124 -33 -184 -2 -64 31 -90 82 -90 171 0 123 53 194 153 204 62
6 107 -16 133 -64 10 -19 21 -34 25 -34 9 0 -2 103 -12 114 -16 17 -180 17
-231 1z"/>
<path d="M4863 4483 c-42 -116 -169 -393 -189 -410 -13 -12 -24 -24 -24 -26 0
-2 29 -4 65 -4 36 0 65 3 65 5 0 3 -8 11 -17 18 -17 12 -17 15 2 71 l20 58 90
0 90 0 17 -36 c31 -66 33 -90 9 -96 -47 -12 -16 -23 64 -23 47 0 85 2 85 4 0
2 -12 16 -26 32 -15 16 -63 116 -108 223 -76 179 -85 195 -109 198 -19 3 -29
-2 -34 -14z m51 -150 c16 -38 30 -74 33 -80 4 -10 -13 -13 -66 -13 -39 0 -71
3 -71 6 0 14 63 154 69 154 4 0 20 -30 35 -67z"/>
<path d="M6904 4480 c-49 -24 -69 -58 -68 -112 2 -54 39 -90 133 -128 115 -48
141 -93 80 -144 -55 -46 -140 -33 -198 32 -18 20 -30 29 -27 19 3 -10 6 -32 6
-48 0 -41 40 -59 135 -59 121 0 185 46 185 133 0 44 -28 79 -82 102 -138 58
-148 64 -158 91 -41 106 142 146 196 43 8 -17 17 -29 19 -27 2 1 1 25 -2 51
-5 40 -10 50 -30 58 -44 17 -145 11 -189 -11z"/>
<path d="M7429 4492 c-23 -3 -33 -22 -109 -198 -46 -107 -94 -206 -107 -220
-12 -14 -23 -26 -23 -28 0 -2 29 -4 65 -4 68 -1 78 5 46 25 -21 13 -18 36 10
106 l12 28 90 -3 91 -3 22 -55 c23 -54 23 -55 3 -72 -10 -9 -19 -19 -19 -22 0
-3 39 -6 88 -6 85 1 86 1 66 18 -28 24 -42 52 -125 249 -38 91 -72 170 -76
176 -5 7 -20 11 -34 9z m27 -170 l31 -77 -39 -3 c-21 -2 -54 -2 -73 0 l-34 3
37 82 c20 45 39 80 42 77 3 -3 19 -40 36 -82z"/>
<path d="M8291 4487 c-50 -19 -111 -75 -132 -121 -24 -54 -25 -148 0 -201 37
-81 117 -127 222 -127 81 0 140 24 192 77 47 48 60 91 55 175 -7 128 -87 201
-227 207 -45 1 -90 -3 -110 -10z m179 -39 c52 -36 75 -90 75 -178 0 -129 -57
-200 -160 -200 -62 0 -108 27 -139 80 -30 50 -29 179 0 235 30 57 75 85 139
85 37 0 61 -6 85 -22z"/>
<path d="M2650 4470 c19 -19 20 -33 20 -200 l0 -181 -26 -24 -27 -25 87 0 c80
0 110 11 67 25 -32 10 -47 170 -16 181 36 14 66 -8 135 -100 56 -74 77 -95
102 -100 33 -6 88 -8 88 -3 0 2 -26 30 -57 63 -81 83 -133 141 -133 148 0 3 7
6 15 6 8 0 30 14 49 31 66 58 57 146 -18 180 -33 15 -66 19 -173 19 l-133 0
20 -20z m237 -34 c22 -19 28 -32 28 -65 0 -58 -28 -83 -102 -92 -32 -3 -61 -4
-65 -2 -10 5 -10 108 -2 152 6 30 8 31 60 31 41 0 59 -5 81 -24z"/>
<path d="M3831 4471 c23 -18 24 -25 27 -187 4 -173 -4 -224 -33 -224 -8 0 -15
-5 -15 -11 0 -18 268 -7 305 13 51 28 76 62 77 105 1 54 -14 77 -64 101 l-43
20 28 13 c52 24 72 93 41 138 -29 41 -72 51 -215 51 -130 0 -131 0 -108 -19z
m219 -26 c49 -25 53 -100 7 -129 -12 -8 -44 -16 -72 -18 l-50 -3 -3 83 -3 82
46 0 c25 0 59 -7 75 -15z m-15 -185 c50 -11 75 -41 75 -90 0 -30 -6 -44 -31
-64 -25 -22 -41 -26 -90 -26 l-59 0 0 88 c0 49 3 92 7 95 9 10 50 8 98 -3z"/>
<path d="M4294 4474 c13 -13 16 -47 16 -211 0 -186 -1 -195 -20 -200 -11 -3
-20 -9 -20 -14 0 -6 74 -8 172 -7 l172 3 8 44 c4 25 6 46 4 48 -2 2 -17 -10
-34 -27 -29 -29 -34 -30 -117 -30 l-86 0 3 88 3 87 44 3 c63 5 88 -4 105 -36
15 -26 15 -25 16 41 l0 67 -20 -20 c-17 -17 -31 -20 -83 -18 l-62 3 -3 83 -3
82 80 0 c70 0 83 -3 101 -22 11 -12 20 -28 20 -35 0 -7 5 -13 11 -13 8 0 9 11
5 31 -3 17 -6 40 -6 50 0 18 -10 19 -161 19 -146 0 -159 -1 -145 -16z"/>
<path d="M5187 4475 c20 -14 22 -25 25 -174 3 -143 5 -163 24 -187 44 -59 68
-69 169 -69 109 0 136 13 173 85 19 39 22 59 22 171 0 136 8 174 37 182 10 3
-16 5 -57 6 -70 1 -73 0 -52 -15 21 -14 22 -21 22 -167 0 -133 -3 -156 -20
-184 -32 -54 -123 -69 -181 -30 -53 36 -59 56 -59 219 0 141 1 148 22 162 21
15 17 16 -62 16 -78 0 -83 -1 -63 -15z"/>
<path d="M5700 4433 l0 -58 23 40 c22 39 24 40 85 43 l62 3 0 -181 c0 -181 -6
-220 -35 -220 -8 0 -15 -4 -15 -10 0 -6 37 -10 90 -10 91 0 109 7 68 25 -23
10 -23 14 -26 203 l-2 192 50 0 c55 0 90 -13 90 -33 0 -7 7 -22 15 -33 13 -17
14 -14 15 39 l0 57 -210 0 -210 0 0 -57z"/>
<path d="M6169 4452 c60 -64 151 -226 151 -269 0 -71 -12 -115 -32 -121 -44
-11 -11 -22 67 -22 50 0 85 4 85 10 0 6 -7 10 -15 10 -23 0 -35 34 -35 103 0
61 3 69 65 173 36 60 78 119 93 131 l27 23 -70 0 c-52 -1 -66 -3 -52 -11 9 -5
17 -17 17 -26 0 -18 -88 -173 -98 -173 -9 0 -102 163 -102 178 0 6 8 16 18 21
12 8 -6 10 -69 11 l-86 0 36 -38z"/>
<path d="M7730 4483 c36 -13 40 -34 40 -204 0 -171 -8 -219 -35 -219 -8 0 -15
-5 -15 -10 0 -7 60 -10 172 -8 l173 3 11 53 12 52 -39 -35 c-38 -34 -41 -35
-124 -35 l-85 0 0 180 c0 179 0 181 25 205 l24 25 -87 -1 c-48 0 -80 -3 -72
-6z"/>
<path d="M8738 4470 c21 -20 22 -28 22 -201 l0 -180 -26 -24 -27 -25 72 0 c68
0 93 12 51 25 -19 6 -20 15 -20 168 1 154 1 161 18 142 9 -12 79 -92 155 -178
107 -121 144 -157 163 -157 l24 0 0 205 c0 197 1 205 22 225 l22 20 -68 0
c-66 0 -68 0 -47 -17 21 -17 22 -25 19 -172 l-3 -155 -148 172 -148 172 -51 0
-52 0 22 -20z"/>
</g>
</svg>
