<?xml version="1.0" encoding="UTF-8"?>
<svg version="1.1" viewBox="0 0 2000 2000" width="500" height="500" xmlns="http://www.w3.org/2000/svg">
<path transform="translate(826,500)" d="m0 0h54l29 2 31 5 31 8 28 8 22 8 22 11 20 9h8l18-10 25-13 25-9 25-7 20-4 15-2 18-1h14l16 1 7 2 1 1v8l-2 7-13-1h-44l-20 3-24 6-25 9-16 8-26 14-1 2 4 2 10 9 14 11 12 11 11 10 7 8 11 13 12 18 12 23 6 16 5 21 3 25v20l-3 23-6 24-8 20-9 16-9 12-9 11-12 13-14 13-18 13-13 9-16 9-23 12-11 6v3l7 9 10 11 18 22 10 11 5-4 9-12 8-11 8-10 12-14 7-8 21-21 8-7 10-9 14-11 10-8 13-9 18-12 25-14 27-13 20-8 18-6 27-6 33-5 11-1h30l21 2 25 5 17 6 17 9 14 11 9 11 9 17 4 12 2 13v15l-2 14-5 17-9 20-9 14-8 10-9 10-13 13-20 15-16 9-19 9-19 7-17 4-17 2h-31l-21-3-17-5-16-8-9-7-6-5-6-9-5-11-1-10 2-9 5-8 6-5 5-2h12l8 3 7 8 1 3v12l-5 8-8 5h-9l-6-1 7 10 8 6 10 4 17 3h22l15-2 21-5 13-6 19-10 11-8 13-11 13-13 1-2h2l2-4 11-17 7-14 5-16 2-11v-25l-3-14-5-10-11-12-11-7-14-5-16-2h-30l-20 3-17 5-21 9-17 9-19 12-18 13-12 11-8 7-23 23-9 11-10 13-11 15-13 20-13 24-8 15-9 20-7 15-10 26-8 24-9 36-4 21-5 32-3 29v51l3 30 6 31 8 24 8 18 10 17 10 14 11 12 7 8 11 10 17 12 14 8 16 7 21 7 20 4 10 1h32l19-2 19-5 20-7 24-11 18-12 14-11 15-14 9-11 15-20 14-25 8-19 6-19 4-20 2-20v-39l-4-28-5-18-6-14-10-17-11-14-9-9-14-10-19-10-21-7-14-3-9-1h-24l-20 3-23 7-18 8-11 6-16 12-11 11-11 14-8 13-8 16-6 18-2 13v18l3 15 7 16 8 11 12 12 14 8 12 5 14 3h22l14-3 14-6 13-9 8-7 8-12 4-11-24 8-6 1h-13l-10-3-11-8-7-9-6-13-1-4v-15l4-13 7-12 8-8 12-7 14-3h17l10 3 11 7 7 7 8 13 5 14 2 17-3 19-6 15-6 11-12 14-13 10-21 11-17 5-11 2h-28l-14-3-13-5-11-6-10-8-9-9-10-15-7-17-3-11-1-7v-20l3-17 6-17 9-19 9-13 9-11 11-12 12-11 14-10 19-11 16-7 18-5 17-3 10-1h35l20 3 19 6 16 8 13 8 14 11 10 9 8 8 11 16 11 21 7 21 3 15 2 15v32l-3 27-5 23-6 21-6 15-12 25-7 11-13 18-11 13-7 8-13 13-14 11-11 8-15 9-25 12-21 8-22 6-19 3-19 2h-54l-28-4-25-7-27-10-18-8-17-10-17-12-13-11-21-21-9-11-13-17-12-20-8-16-10-23-7-24-5-24-3-32v-56l3-32 6-28 8-30 5-15 1-5v-15l-3-19-4-17-11-33-9-20-10-18-11-16-4-2-24 5-22 3h-24l-25-3-4-1-3 12-13 47-12 36-12 29-12 24-8 14-7 11-11 16-9 12-12 14-9 11-31 31-14 11-18 13-20 12-26 12-25 9-25 6-21 3h-38l-13-2-22-6-17-8-12-8-10-8-7-6-11-14-9-14-7-16-4-13-2-15v-26l3-16 7-16 8-11 9-9 10-6 10-4 4-1h18l12 5 11 8 7 9 6 12 2 8v16l-5 16-7 11-9 8-10 5-13 3h-8l-12-3-16-8-10-6 3 20 5 16 7 14 12 14 10 10 15 10 10 5 21 5 17 2h12l22-2 22-5 14-6 14-9 14-11 8-8 14-16 13-18 9-15 12-22 13-29 14-36 18-53 9-29 17-52 12-36 13-38 10-24 11-26 12-26 8-16 9-17 14-24 15-22 12-16 11-14 9-11 12-14 15-16 28-28 8-7 16-13 16-11 14-7v-2l-16-11-17-10-21-10-38-13-30-7-32-4h-62l-24 3-26 5-30 9-27 9-25 11-19 10-14 8-12 8-12 9-10 8-14 12-21 21-16 20-10 15-13 22-8 16-9 20-9 27-4 17-4 35v31l4 27 5 18 11 23 8 12 8 9v2h2l5 5 10 8 16 9 13 5 14 3h34l16-3 18-6 16-8 15-9 13-12 5-4 9-11 10-13 11-21 8-22 3-12 1-8v-37l-3-17-7-17-8-12-4-5-11-7-12-5-7-1-16 2-1 3 9 3 12 6 10 11 6 10 2 6v15l-3 12-6 10-6 7-9 6-11 5-8 2h-15l-13-4-10-6-10-9-6-10-3-8-2-9v-15l4-15 6-14 9-12 8-8 14-9 13-5 13-3h19l17 5 15 9 12 12 9 14 6 14 5 22 2 17v17l-3 19-6 26-6 18-8 18-11 19-9 12-11 13-16 15-15 10-19 9-21 7-26 4h-30l-17-3-16-5-16-8-11-7-13-11-11-11-11-15-9-17-9-24-5-21-2-20v-24l2-22 4-24 7-28 9-24 11-24 13-21 14-20 9-11 8-10 9-10 18-18 11-9 18-14 17-12 28-17 26-13 29-12 18-6 30-8 28-6 15-2zm220 88-8 7-10 9-9 9-9 11-11 13-13 18-11 16-6 11-15 29-9 20-11 30-11 36-12 48-6 29v4l2 1 21 3 15 4 25 9 16 8 17 9 7-1 11-7 16-13 10-9 9-9 11-14 10-14 9-16 8-20 5-15 5-23 2-17v-40l-3-28-5-21-8-21-10-19-12-18-8-10-8-9zm-146 306-5 22-2 16 3 2 17 2h25l17-3 17-5v-4l-7-6-18-11-13-6-18-5-10-2z" fill="#E99768"/>
<path transform="translate(1263,844)" d="m0 0 1 2-5 5-9 7-3 11-1 5 4 8-1 10h-2v2h-2l-1 4-5 7-5 5-7 8-9 11-7 9-9 12-3 3-3 5-9 14-6 11-6 8-6 11-18 32-3 5h-2l-1 2-2 1-5-3-4-8-4-7-1-3h-2l-4-6-8-3-6-4h-8v2l-5 5-7 11-12 23-10 23-10 26-9 29-12 48-3 17-3 22-2 1-1-9v-22l2-21 6-32 8-28 7-21 10-24 17-35 17-28 13-19 12-17 11-13 7-8 9-9 7-8 12-12 8-6 5-5 11-9 13-9 10-7 23-15 17-8z" fill="#FFE7AA"/>
<path transform="translate(1238,858)" d="m0 0 2 2-5 5-5 4h-2v2l-8 6h-2v2h-2v2l-13 10-9 8-11 9-19 19-7 6-1 2h-2l-2 4-2 3h-2v2l-5 4-1 2h-2v2l-5 5-6 8-3 5h-2l-2 4-6 7-7 10-6 11-4 6-2 6-7 10-13 25-10 23-10 26-9 29-12 48-3 17-3 22-2 1-1-9v-22l2-21 6-32 8-28 7-21 10-24 17-35 17-28 13-19 12-17 11-13 7-8 9-9 7-8 12-12 8-6 5-5 11-9 13-9 10-7 18-12z" fill="#FEFDFD"/>
<path transform="translate(892,501)" d="m0 0 17 1 31 5 31 8 28 8 22 8 22 11 20 9h8l10-6 3 1-4 4-3 2h-5v2h-8v2h-2l7 7 7 3 4 2 2 3 8 4v2l4 1 9 7 2 2 5 2 5 5 7 6 5 6 4 3v2l4 2 3 3 3 5 11 13v2h2l4 8 6 9 8 19 6 18 4 18 1 13v11l-4-1-2-8-2-10-4-16-4-11-7-17-11-20-8-12-10-13-9-11-8-8v-2h-2l-7-8-8-6v-2l-4-2-17-13-11-8-9-5-10-6-17-9-19-9-2-2-13-4-9-4-20-6-10-4-17-4-2-1-20-1-5-2-7-1-27-1 2-2 11-1z" fill="#FDFDFD"/>
<path transform="translate(794,968)" d="m0 0h2l-2 13-9 39-6 20-9 28-5 15-14 28-8 18-7 11-5 8-1-2 4-9 3-7 3-8 3-9 6-15 10-28 8-23 9-29 9-24 5-16z" fill="#FEFBF3"/>
<path transform="translate(999,913)" d="m0 0h2l1 2 3 1 1 3 11 8 14 11 7 6v2l4 2 9 9v2l3 1 10 15 5 10v8l-3 2h-4l-4-4v-2l-3-1-5-8v-2h-2l-6-10-7-9-4-6-9-12-14-15-5-5v-2l-5-2z" fill="#FEFEFE"/>
<path transform="translate(1364,1096)" d="m0 0h35l20 3 19 6 16 8 13 8 14 11 10 9 8 8 11 16 11 21 7 21 2 11-4-5-4-11-5-13-1-4h-2l-3-4-3-7-10-15-8-11-14-14-11-7-9-6v-2l-6-1-3-2v-3l-9-2-8-4-14-4-11-1-10-3-15-1h-26v-1z" fill="#FDFBFA"/>
<path transform="translate(505,1082)" d="m0 0 8 1 8 2 8 5v2l4 2 4 5 4 7 1 5v14l-3 8-5 1-3-17-4-10-5-8-7-6-8-5-4-2z" fill="#FEFEFE"/>
<path transform="translate(1217,505)" d="m0 0h14l16 1 7 2 1 1v8h-1l-1-8-19 1h-32l-10 1-2 1-26 3-2 2-13 2-3 2-9 2-1 2-10 3-3 2h-7l-1 2-2-1-1 3-7 1v2l-5 2h-3l2 2-4 1-2-3 19-10 21-8 23-7 22-5 21-3z" fill="#FDFDFD"/>
<path transform="translate(782,1024)" d="m0 0 1 4-13 40-5 15-14 28-8 18-7 11-5 8-1-2 4-9 3-7 3-8 3-9 6-15 10-28 3-8 1 4-4 14v3l2-5 3-3 4-12 5-12z" fill="#FFE7AA"/>
<path transform="translate(1127,1360)" d="m0 0h2l5 8 3 3 9 17 11 16 6 7 1 4 7 8 1 3h2l1 5-4-1-11-11-7-9-9-13-9-16-6-13z" fill="#FBF1EC"/>
<path transform="translate(1416,1006)" d="m0 0 1 2-3 5-10 8-14 7-13 4h-22l-5-2 3-2 15-2 15-4 12-5 6-3 10-6z" fill="#FEFBF4"/>
<path transform="translate(517,880)" d="m0 0 3 3 2 5 2 1v3h3l8 15 7 10 7 8v2h2l2 7-5-1-2-4h-2l-11-14-7-11-8-17z" fill="#FDFBFA"/>
<path transform="translate(1228,1265)" d="m0 0 2 3 8 16 7 9 11 11 3 2v4l-3 1-11-8-10-12-6-12-2-6z" fill="#FDFCFB"/>
<path transform="translate(1357,1470)" d="m0 0h13l-2 4-10 4-15 3-13 2-3-4-8-1v-1l19-2z" fill="#FDFCFB"/>
<path transform="translate(1385,1222)" d="m0 0 3 1 5 8 1 4v19l-2 8-2 4h-2v-24z" fill="#FEFEFE"/>
<path transform="translate(1416,1006)" d="m0 0 1 2-3 5-10 8-14 7-13 4h-22l-5-2 3-2 14-1-2 1v2h9l17-5 8-4 8-6-1-4z" fill="#FFE7AA"/>
<path transform="translate(1136,520)" d="m0 0m-3 1h3l1 3-14 6h-7l-1 2-2-1-1 3-7 1v2l-5 2h-3l2 2-4 1-2-3 19-10z" fill="#FEFEFE"/>
<path transform="translate(905,935)" d="m0 0 30 1-1 3-15 1-7-1v-2l-4 1z" fill="#FEFEFE"/>
<path transform="translate(1164,512)" d="m0 0m-4 1h4l-2 4-13 2-3 2-5 1h-5l3-3z" fill="#FEFEFE"/>
<path transform="translate(1531,1228)" d="m0 0h1l1 9v32h-1l-1-16-1-11v-11z" fill="#FEFEFE"/>
<path transform="translate(722,763)" d="m0 0 3 1 2 8v8l-2 1-3-9z" fill="#FEFEFE"/>
<path transform="translate(1289,973)" d="m0 0 5 1 1 7-4 1-3-5z" fill="#FEFEFE"/>
<path transform="translate(1081,545)" d="m0 0 3 1-4 4-3 2h-5v2l-5-1 4-2z" fill="#FEFEFE"/>
<path transform="translate(986,904)" d="m0 0 6 2 9 5-4 3-3-1-1-3h-2v-3l-3 1z" fill="#FDFBFA"/>
<path transform="translate(1145,517)" d="m0 0h3l1 3-7 2h-6l3-3z" fill="#FDFBF9"/>
<path transform="translate(1120,1337)" d="m0 0 3 2 2-1-1 9h-2v-4h-2z" fill="#FEFEFE"/>
</svg>
